<?xml version="1.0" standalone="no"?><!DOCTYPE svg PUBLIC "-//W3C//DTD SVG 1.1//EN" "http://www.w3.org/Graphics/SVG/1.1/DTD/svg11.dtd"><svg t="1613918537998" class="icon" viewBox="0 0 1024 1024" version="1.1" xmlns="http://www.w3.org/2000/svg" p-id="1582" width="32" height="32" xmlns:xlink="http://www.w3.org/1999/xlink"><defs><style type="text/css"></style></defs><path d="M853.333333 469.333333H640a85.333333 85.333333 0 0 1-85.333333-85.333333V170.666667a85.333333 85.333333 0 0 1 85.333333-85.333334h213.333333a85.333333 85.333333 0 0 1 85.333334 85.333334v213.333333a85.333333 85.333333 0 0 1-85.333334 85.333333z m21.333334-298.666666a21.333333 21.333333 0 0 0-21.333334-21.333334H640a21.333333 21.333333 0 0 0-21.333333 21.333334v213.333333a21.333333 21.333333 0 0 0 21.333333 21.333333h213.333333a21.333333 21.333333 0 0 0 21.333334-21.333333V170.666667zM384 938.666667H170.666667a85.333333 85.333333 0 0 1-85.333334-85.333334V640a85.333333 85.333333 0 0 1 85.333334-85.333333h213.333333a85.333333 85.333333 0 0 1 85.333333 85.333333v213.333333a85.333333 85.333333 0 0 1-85.333333 85.333334z m21.333333-298.666667a21.333333 21.333333 0 0 0-21.333333-21.333333H170.666667a21.333333 21.333333 0 0 0-21.333334 21.333333v213.333333a21.333333 21.333333 0 0 0 21.333334 21.333334h213.333333a21.333333 21.333333 0 0 0 21.333333-21.333334V640z m-21.333333-170.666667H170.666667a85.333333 85.333333 0 0 1-85.333334-85.333333V170.666667a85.333333 85.333333 0 0 1 85.333334-85.333334h213.333333a85.333333 85.333333 0 0 1 85.333333 85.333334v213.333333a85.333333 85.333333 0 0 1-85.333333 85.333333z m21.333333-298.666666a21.333333 21.333333 0 0 0-21.333333-21.333334H170.666667a21.333333 21.333333 0 0 0-21.333334 21.333334v213.333333a21.333333 21.333333 0 0 0 21.333334 21.333333h213.333333a21.333333 21.333333 0 0 0 21.333333-21.333333V170.666667z m245.333334 405.333333a32 32 0 0 1 32 32v42.666667a32 32 0 1 1-64 0v-42.666667a32 32 0 0 1 32-32z m0 149.333333a32 32 0 0 1 32 32v128a32 32 0 1 1-64 0v-128a32 32 0 0 1 32-32z m192-149.333333a32 32 0 0 1 32 32v128a32 32 0 1 1-64 0v-128a32 32 0 0 1 32-32z m0 234.666667a32 32 0 0 1 32 32v42.666666a32 32 0 1 1-64 0v-42.666666a32 32 0 0 1 32-32z" fill="#333333" p-id="1583"></path><path d="M704 320v-85.333333h85.333333v85.333333h-85.333333zM234.666667 704h85.333333v85.333333h-85.333333v-85.333333z m0-469.333333h85.333333v85.333333h-85.333333v-85.333333z" fill="#FF9C00" p-id="1584"></path></svg>