<?xml version="1.0" standalone="no"?><!DOCTYPE svg PUBLIC "-//W3C//DTD SVG 1.1//EN" "http://www.w3.org/Graphics/SVG/1.1/DTD/svg11.dtd"><svg t="1613918750161" class="icon" viewBox="0 0 1024 1024" version="1.1" xmlns="http://www.w3.org/2000/svg" p-id="4613" xmlns:xlink="http://www.w3.org/1999/xlink" width="32" height="32"><defs><style type="text/css"></style></defs><path d="M655.1 838.3H364.9C211.1 838.3 86 713.2 86 559.5s125.1-278.9 278.9-278.9h290.2c153.8 0 278.9 125.1 278.9 278.9s-125.1 278.8-278.9 278.8zM364.9 371.4c-103.7 0-188 84.3-188 188s84.3 188 188 188h290.2c103.7 0 188-84.3 188-188s-84.3-188-188-188H364.9z" fill="#53B237" opacity=".8" p-id="4614"></path><path d="M510 371.4c-25.1 0-45.4-20.3-45.4-45.4v-169.1c0-25.1 20.3-45.4 45.4-45.4s45.4 20.3 45.4 45.4V326c0 25.1-20.3 45.4-45.4 45.4z" fill="#53B237" opacity=".8" p-id="4615"></path><path d="M375.4 682.7c-25.1 0-45.4-20.3-45.4-45.4V481.6c0-25.1 20.3-45.4 45.4-45.4s45.4 20.3 45.4 45.4v155.6c0 25.2-20.3 45.5-45.4 45.5z" fill="#66B850" opacity=".8" p-id="4616"></path><path d="M451.1 604.9H299.7c-25.1 0-45.4-20.3-45.4-45.4s20.3-45.4 45.4-45.4h151.4c25.1 0 45.4 20.3 45.4 45.4s-20.3 45.4-45.4 45.4z" fill="#66B850" opacity=".8" p-id="4617"></path><path d="M695.1 202.3H510c-25.1 0-45.4-20.3-45.4-45.4s20.3-45.4 45.4-45.4h185.1c25.1 0 45.4 20.3 45.4 45.4s-20.3 45.4-45.4 45.4z" fill="#53B237" opacity=".8" p-id="4618"></path><path d="M595.2 559.5m-46.1 0a46.1 46.1 0 1 0 92.2 0 46.1 46.1 0 1 0-92.2 0Z" fill="#66B850" opacity=".8" p-id="4619"></path><path d="M716.3 559.5m-46.1 0a46.1 46.1 0 1 0 92.2 0 46.1 46.1 0 1 0-92.2 0Z" fill="#66B850" opacity=".8" p-id="4620"></path></svg>